Coordinates
version=1
nRows=29
nColumns=24
inDegrees=yes

Units are S.I. units (second, meters, Newtons, ...)
Angles are in degrees.

endheader
time	pelvis_tilt	pelvis_list	pelvis_rotation	pelvis_tx	pelvis_ty	pelvis_tz	hip_flexion_r	hip_adduction_r	hip_rotation_r	knee_angle_r	ankle_angle_r	subtalar_angle_r	mtp_angle_r	hip_flexion_l	hip_adduction_l	hip_rotation_l	knee_angle_l	ankle_angle_l	subtalar_angle_l	mtp_angle_l	lumbar_extension	lumbar_bending	lumbar_rotation
      3.54000000	     -6.75744201	     -2.91738888	     -5.42937768	     -0.99858621	     -0.04247258	     -0.12725905	     -6.71431746	      9.54523817	      7.21351378	    -25.49017061	      6.76500675	     13.18114057	     18.94956646	     38.75305988	     -0.81659932	    -17.81893087	    -17.99556673	      6.75946065	     12.19304645	    -13.62987874	      6.21563121	      2.53852384	      7.19009289
      3.54500000	     -6.85487491	     -2.55279622	     -5.45343042	     -0.99069852	     -0.04300481	     -0.12746670	     -6.58506318	      8.97351162	      6.76644654	    -26.40327432	      6.05995815	     14.17814033	     19.53207091	     38.65159779	     -0.32745798	    -17.55030222	    -18.42073036	      5.87238968	     11.08436221	    -13.80656956	      6.62384404	      2.12934166	      7.16442234
      3.55000000	     -6.83693813	     -2.19695419	     -5.31425516	     -0.98277512	     -0.04338294	     -0.12791812	     -6.57770474	      8.37534237	      6.04652235	    -27.21615351	      5.00582331	     15.00627511	     20.71155400	     38.41542321	      0.30813131	    -16.91388868	    -18.74288710	      4.69499494	      9.66144234	    -13.56637828	      6.90619725	      1.69306961	      6.93746182
      3.55500000	     -6.87095912	     -1.76353885	     -5.30569244	     -0.97491000	     -0.04363270	     -0.12820223	     -6.45356954	      7.68609043	      5.54551374	    -28.05869682	      3.75083253	     15.79529518	     22.40620226	     38.21447892	      0.91661921	    -16.45738889	    -18.98806155	      3.22118888	      8.19337986	    -12.80979063	      7.23328121	      1.19770866	      6.88268625
      3.56000000	     -6.99344498	     -1.30106352	     -5.21072866	     -0.96704626	     -0.04397286	     -0.12862922	     -6.15320284	      6.93924156	      4.81998209	    -29.08544665	      2.72713222	     17.04406314	     23.25386065	     38.16904227	      1.59774510	    -15.89515717	    -19.35756634	      1.97638356	      6.83731150	    -13.00773792	      7.66009310	      0.67014602	      6.74419381
      3.56500000	     -7.08884342	     -0.79337214	     -5.13153058	     -0.95907876	     -0.04416882	     -0.12909648	     -5.86106129	      6.11134502	      4.12058154	    -30.08557438	      1.44045784	     18.23165442	     24.42400923	     38.06669077	      2.34087430	    -15.24260163	    -19.68307562	      0.72882099	      5.33503598	    -13.27192688	      8.07714862	      0.10214092	      6.59303250
      3.57000000	     -7.11387621	     -0.28268376	     -4.93094608	     -0.95104790	     -0.04418360	     -0.12960425	     -5.67612605	      5.27579976	      3.32974064	    -30.90188305	     -0.36501061	     19.02704108	     26.50261116	     37.88413454	      3.16271743	    -14.41222923	    -20.00600499	     -0.56244246	      3.89749223	    -13.47750548	      8.41670459	     -0.51559618	      6.35324799
      3.57500000	     -7.26556389	      0.22503194	     -4.87432436	     -0.94326287	     -0.04432173	     -0.13005683	     -5.20008489	      4.40847091	      2.65978243	    -32.00630613	     -1.93675780	     20.32730840	     27.85471692	     37.90075817	      3.86978344	    -13.76123940	    -20.46093840	     -1.68314413	      2.53930400	    -13.94996469	      8.84994015	     -1.06684390	      6.30219521
      3.58000000	     -7.32455471	      0.76190111	     -4.69915096	     -0.93521179	     -0.04427364	     -0.13056153	     -4.88909633	      3.50431847	      1.90645087	    -32.88725230	     -4.07731665	     21.13051990	     30.03790913	     37.76796441	      4.69425526	    -12.97039030	    -20.88693763	     -2.61027630	      1.25944657	    -14.63906111	      9.22686435	     -1.70141456	      6.07916834
      3.58500000	     -7.45600060	      1.28361182	     -4.57861927	     -0.92733631	     -0.04431359	     -0.13106517	     -4.39391349	      2.59514387	      1.22273221	    -33.94392363	     -6.16803265	     22.16625608	     31.74558933	     37.74607974	      5.45326466	    -12.27986664	    -21.38991252	     -3.36060043	      0.09967731	    -15.41381145	      9.64563713	     -2.28780198	      5.95746840
      3.59000000	     -7.65578127	      1.83466879	     -4.50633159	     -0.91950479	     -0.04441422	     -0.13149677	     -3.74450998	      1.65235619	      0.68140043	    -35.16439359	     -8.13457811	     23.45766221	     32.68924524	     37.78852370	      6.18310065	    -11.73526760	    -21.88649088	     -4.00839853	     -0.91592753	    -15.94582579	     10.13210520	     -2.88966555	      5.91063639
      3.59500000	     -7.71401696	      2.28058997	     -4.33817528	     -0.91190008	     -0.04441040	     -0.13215890	     -3.22632267	      0.78630491	     -0.01513006	    -36.29087831	    -10.58409319	     24.33292400	     34.28818280	     37.68364688	      6.91331591	    -11.01535130	    -22.41246173	     -4.45830374	     -1.96710503	    -16.65061910	     10.38799772	     -3.38518643	      5.80219733
      3.60000000	     -7.82842905	      2.78970887	     -4.17596255	     -0.90419510	     -0.04442472	     -0.13269053	     -2.61534553	     -0.12401162	     -0.59250094	    -37.47059631	    -13.08595539	     25.12582863	     35.49053399	     37.59714697	      7.64943031	    -10.53501412	    -22.89454119	     -4.71534699	     -2.71429340	    -17.17194852	     10.73179625	     -3.96695104	      5.67376606
      3.60500000	     -7.90855973	      3.28957963	     -3.98572828	     -0.89659360	     -0.04441086	     -0.13323823	     -1.99792487	     -1.01730136	     -1.12224024	    -38.70019789	    -15.67888057	     25.79647208	     36.41139007	     37.44770473	      8.38001377	    -10.12793609	    -23.34391788	     -4.82774140	     -3.30258973	    -17.52302845	     11.01326989	     -4.54967636	      5.52053626
      3.61000000	     -8.01453250	      3.79433887	     -3.80387308	     -0.88910611	     -0.04440290	     -0.13374861	     -1.28502473	     -1.88657343	     -1.51889762	    -40.05436499	    -18.21776971	     26.38429932	     36.57881569	     37.28660579	      9.09531853	     -9.81590618	    -23.71515160	     -4.90079046	     -3.84162804	    -17.63920486	     11.29923656	     -5.13905750	      5.36150410
      3.61500000	     -8.05801990	      4.31926559	     -3.59121814	     -0.88171641	     -0.04436172	     -0.13425979	     -0.59202581	     -2.78426344	     -1.94887386	    -41.48732996	    -20.71939356	     26.81888029	     36.36683656	     37.03265015	      9.81748749	     -9.66923495	    -24.05241273	     -4.75979778	     -4.07645103	    -17.56397592	     11.48841702	     -5.76434361	      5.19756490
      3.62000000	     -8.11515872	      4.82466644	     -3.35407242	     -0.87449712	     -0.04430891	     -0.13489948	      0.16848375	     -3.65591783	     -2.33414795	    -42.96225025	    -23.30293156	     27.03372327	     36.01828885	     36.75329596	     10.55751145	     -9.45791452	    -24.30577941	     -4.63968288	     -4.41199820	    -17.47019222	     11.65334399	     -6.35294933	      5.01642851
      3.62500000	     -8.16454450	      5.32816073	     -3.08657665	     -0.86742807	     -0.04423318	     -0.13561283	      0.96932608	     -4.52093568	     -2.70657698	    -44.48945146	    -25.89547067	     27.01031129	     35.45651309	     36.42764594	     11.31409960	     -9.26557405	    -24.48407729	     -4.47846683	     -4.69441475	    -17.30423868	     11.77266797	     -6.94194310	      4.81512329
      3.63000000	     -8.20729292	      5.84243356	     -2.80230907	     -0.86045442	     -0.04412724	     -0.13637017	      1.80625012	     -5.39278248	     -3.06578068	    -46.06661768	    -28.45121371	     26.70381742	     34.61741551	     36.05511059	     12.08970366	     -9.10062647	    -24.59099829	     -4.27543896	     -4.93083061	    -17.06709263	     11.86514992	     -7.53609306	      4.59940251
      3.63500000	     -8.29792477	      6.28345857	     -2.42286270	     -0.85368373	     -0.04407700	     -0.13722636	      2.73796469	     -6.16830559	     -3.45864837	    -47.76862133	    -30.70709118	     26.27164044	     32.84557886	     35.70908888	     12.83980798	     -8.83897957	    -24.64122042	     -4.24036844	     -5.20285319	    -16.15093901	     11.95096589	     -8.07545186	      4.28437209
      3.64000000	     -8.28959924	      6.83489155	     -2.17854011	     -0.84695585	     -0.04382802	     -0.13797515	      3.62963819	     -7.06329708	     -3.69274216	    -49.43377119	    -33.07430242	     25.46062810	     31.59680553	     35.20201109	     13.63033467	     -8.75468947	    -24.58440356	     -4.01411646	     -5.37032649	    -15.86338769	     11.94479891	     -8.69580514	      4.13315964
      3.64500000	     -8.32491480	      7.30131333	     -1.86689337	     -0.84030125	     -0.04360165	     -0.13882943	      4.58356428	     -7.85449324	     -3.95523485	    -51.13193747	    -35.16062936	     24.47019275	     29.85590979	     34.69648908	     14.38316897	     -8.55682944	    -24.47845245	     -3.73514662	     -5.53630652	    -15.45621195	     11.96055590	     -9.23197024	      3.84424507
      3.65000000	     -8.35955074	      7.79585595	     -1.55215905	     -0.83374396	     -0.04335335	     -0.13972679	      5.58073809	     -8.68301540	     -4.18924129	    -52.87429562	    -36.90308237	     23.39579477	     27.98630487	     34.16434645	     15.16044979	     -8.39028277	    -24.31506115	     -3.47836953	     -5.65491534	    -15.02827904	     11.95722464	     -9.78750793	      3.59244515
      3.65500000	     -8.42335219	      8.27866898	     -1.16433595	     -0.82725623	     -0.04314439	     -0.14069130	      6.62483157	     -9.50303382	     -4.44432332	    -54.69111612	    -38.00138413	     22.42913663	     25.67290612	     33.64240850	     15.94854976	     -8.19787481	    -24.12863396	     -3.26314483	     -5.69345802	    -14.32993578	     11.95833838	    -10.34616239	      3.27627268
      3.66000000	     -8.42727371	      8.74315001	     -0.89794335	     -0.82086663	     -0.04274272	     -0.14156821	      7.64904691	    -10.26442480	     -4.51440365	    -56.35013115	    -39.26711777	     21.15355331	     24.35499578	     33.01613926	     16.67232743	     -8.03817941	    -23.86346779	     -3.00151105	     -5.78887048	    -14.00439209	     11.89688012	    -10.84195902	      3.10736039
      3.66500000	     -8.47486898	      9.17046766	     -0.56163268	     -0.81450323	     -0.04238581	     -0.14243305	      8.71652921	    -10.95981107	     -4.59068188	    -58.03901734	    -39.83767040	     19.95935979	     22.79756891	     32.41148748	     17.37103511	     -7.82884064	    -23.59082650	     -2.69915498	     -5.74963423	    -13.50057344	     11.86532453	    -11.33398781	      2.78775907
      3.67000000	     -8.47143160	      9.58606436	     -0.32925629	     -0.80820277	     -0.04186830	     -0.14321468	      9.77066402	    -11.60399381	     -4.50809222	    -59.59582628	    -40.37254088	     18.69917292	     22.07808277	     31.72456226	     18.00954047	     -7.68243951	    -23.25899570	     -2.37678017	     -5.71309850	    -13.23205685	     11.78525826	    -11.77405070	      2.62522674
      3.67500000	     -8.47498458	      9.95251989	     -0.07976901	     -0.80196221	     -0.04132477	     -0.14394308	     10.83334925	    -12.15829778	     -4.40090557	    -61.09900249	    -40.43921644	     17.47888077	     21.60303964	     31.03355993	     18.58608620	     -7.55863855	    -22.92923184	     -2.00804668	     -5.57319950	    -12.94561617	     11.69621327	    -12.18182093	      2.36311692
      3.68000000	     -8.47995359	     10.26053893	      0.15462848	     -0.79576012	     -0.04071936	     -0.14460610	     11.91257041	    -12.61365558	     -4.25224772	    -62.53001033	    -40.16084956	     16.32688729	     21.30788100	     30.32492346	     19.08189505	     -7.40739949	    -22.59122440	     -1.59690250	     -5.32606874	    -12.58768295	     11.60621375	    -12.52186429	      2.16194626
